HIERARCHY
ROOT Hips
{
	OFFSET 0.00000 0.00000 0.00000
	CHANNELS 6 Xposition Yposition Zposition Yrotation Zrotation Xrotation 
	JOINT Lumbar
	{
		OFFSET 0 0 0
		CHANNELS 3 Zrotation Xrotation Yrotation
		JOINT Neck
		{
			OFFSET 0.00 0.2701 0.00
			CHANNELS 3 Zrotation Xrotation Yrotation
			End Site
			{
				OFFSET 0.00 0.1379 0.00
			}
		}
		JOINT RightShoulder
		{
			OFFSET 0.0119 0.2289 0.1181
			CHANNELS 3 Zrotation Xrotation Yrotation
			JOINT RightElbow
			{
				OFFSET 0.00 -0.1475 0.00
				CHANNELS 2 Zrotation Yrotation
				JOINT RightWrist
				{
					OFFSET 0.00 -0.1605 0.00
					CHANNELS 2 Zrotation Xrotation
					End Site
					{
						OFFSET 0.0040 -0.1068 0.0006
					}
				}
			}
		}
		JOINT LeftShoulder
		{
			OFFSET 0.0119 0.2289 -0.1181
			CHANNELS 3 Zrotation Xrotation Yrotation
			JOINT LeftElbow
			{
				OFFSET 0.00 -0.1475 0.00
				CHANNELS 2 Zrotation Yrotation
				JOINT LeftWrist
				{
					OFFSET 0.00 -0.1605 0.00
					CHANNELS 2 Zrotation Xrotation
					End Site
					{
						OFFSET 0.0040 -0.1068 -0.0006
					}
				}
			}
		}
	}
	JOINT RightHip
	{
		OFFSET 0.0316 -0.0424 0.0458
		CHANNELS 3 Zrotation Xrotation Yrotation
		JOINT RightKnee
		{
			OFFSET 0.00 -0.2438 0.00
			CHANNELS 1 Zrotation
			JOINT RightAnkle
			{
				OFFSET 0.00 -0.2449 0.00
				CHANNELS 3 Zrotation Xrotation Yrotation
				End Site
				{
					OFFSET 0.1237 -0.0542 0.0051
				}
			}
		}
	}
	JOINT LeftHip
	{
		OFFSET 0.0316 -0.0424 -0.0458
		CHANNELS 3 Zrotation Xrotation Yrotation
		JOINT LeftKnee
		{
			OFFSET 0.00 -0.2438 0.00
			CHANNELS 1 Zrotation
			JOINT LeftAnkle
			{
				OFFSET 0.00 -0.2449 0.00
				CHANNELS 3 Zrotation Xrotation Yrotation
				End Site
				{
					OFFSET 0.1237 -0.0542 -0.0051
				}
			}
		}
	}
}
MOTION
Frames: 16
Frame Time: 0.02
0.00023 1e-05 -0.00017 19.57993 -34.15813 -3.40307 58.02005 0.48456 0.22617 -8.4684 -0.6294 -0.14066 9.26985 -103.93247 -90.00401 5.3291 57.07141 -20.29283 0.71741 169.88264 72.99596 54.21585 12.8841 -72.76405 -2.67994 10.87205 47.8812 -1.02833 0.60234 -19.25066 -9.80082 -5.99993 -4.09031 50.80912 3.29636 2.17792 -24.37261 -9.47274 5.5595 3.80253
8e-05 -2e-05 -0.00012 19.53467 -34.15958 -3.40501 58.00946 0.47823 0.25108 -8.49374 -0.63101 -0.14035 9.44868 -103.85257 -90.00464 5.32905 57.13065 -20.39635 0.78359 169.88248 73.00801 54.07233 12.89039 -72.77115 -2.70527 10.91137 47.89594 -1.15155 -0.14155 -19.25009 -9.71644 -5.9656 -4.05897 50.82303 3.32536 2.29303 -24.3722 -9.46667 5.55948 3.79984
-8e-05 -4e-05 -8e-05 19.48952 -34.16101 -3.40695 57.99889 0.47193 0.27592 -8.51906 -0.63263 -0.14004 9.62704 -103.77284 -90.00526 5.32901 57.18973 -20.49964 0.84952 169.88231 73.02004 53.92893 12.89672 -72.77826 -2.73057 10.95061 47.91064 -1.27449 -0.88372 -19.24952 -9.63222 -5.93132 -4.02769 50.8369 3.35434 2.4081 -24.37178 -9.46059 5.55944 3.79714
-0.00023 -7e-05 -3e-05 19.44439 -34.16245 -3.40889 57.98833 0.46562 0.30075 -8.54433 -0.63423 -0.13973 9.80533 -103.69318 -90.00589 5.32896 57.24878 -20.60286 0.91549 169.88214 73.03206 53.78579 12.903 -72.78535 -2.75583 10.98982 47.92533 -1.39735 -1.62543 -19.24894 -9.54808 -5.89708 -3.99644 50.85076 3.38327 2.52291 -24.37137 -9.45453 5.55942 3.79446
-0.00039 -9e-05 2e-05 19.39918 -34.16391 -3.41083 57.97776 0.45929 0.32566 -8.5696 -0.63582 -0.13942 9.98404 -103.61335 -90.00652 5.32891 57.30801 -20.70627 0.9817 169.88198 73.04408 53.64271 12.9092 -72.79241 -2.78108 11.02909 47.94005 -1.52045 -2.36856 -19.24835 -9.46382 -5.86283 -3.96514 50.86465 3.41219 2.63763 -24.37095 -9.44849 5.5594 3.79178
-0.00055 -0.00012 7e-05 19.35415 -34.1653 -3.41277 57.96719 0.45305 0.35036 -8.59502 -0.63749 -0.13911 10.16167 -103.53385 -90.00715 5.32886 57.36675 -20.80929 1.04706 169.88181 73.05614 53.49866 12.91579 -72.79962 -2.80648 11.06825 47.95473 -1.64305 -3.10866 -19.24784 -9.37971 -5.8285 -3.93393 50.87848 3.44131 2.75343 -24.37054 -9.44233 5.55931 3.78905
-0.0007 -0.00014 0.00011 19.3088 -34.16682 -3.4147 57.95664 0.44664 0.37543 -8.62011 -0.639 -0.1388 10.34128 -103.4538 -90.00778 5.32881 57.42639 -20.91301 1.11405 169.88164 73.0681 53.35658 12.92163 -72.80653 -2.83159 11.10761 47.96947 -1.76654 -3.85418 -19.24717 -9.29536 -5.79434 -3.90257 50.89242 3.46999 2.86693 -24.37012 -9.43642 5.55939 3.78644
-0.00086 -0.00017 0.00016 19.26376 -34.16821 -3.41664 57.94605 0.44038 0.40017 -8.64553 -0.64065 -0.13849 10.51907 -103.37422 -90.0084 5.32876 57.48524 -21.01604 1.17954 169.88147 73.08018 53.21295 12.92811 -72.81373 -2.85691 11.14676 47.98415 -1.88917 -4.59445 -19.24664 -9.21127 -5.76005 -3.87136 50.90625 3.49907 2.98255 -24.36971 -9.43027 5.5593 3.78371
-0.00102 -0.00019 0.00021 19.21902 -34.16947 -3.41861 57.93547 0.4343 0.42448 -8.67127 -0.64251 -0.13817 10.6947 -103.2953 -90.00904 5.32871 57.543 -21.11848 1.24321 169.88132 73.09229 53.06626 12.9356 -72.82121 -2.88271 11.18578 47.99877 -2.01096 -5.32969 -19.2463 -9.12732 -5.72549 -3.84024 50.91997 3.52868 3.10085 -24.36931 -9.42387 5.55905 3.78085
-0.00117 -0.00022 0.00025 19.1723 -34.17159 -3.42044 57.92501 0.4272 0.45121 -8.6949 -0.64327 -0.1379 10.88293 -103.21283 -90.00968 5.32867 57.60667 -21.22506 1.31741 169.88111 73.1039 52.93366 12.93794 -72.82687 -2.90642 11.22591 48.0138 -2.13822 -6.09808 -19.24491 -9.04201 -5.69215 -3.80832 50.93441 3.55538 3.20402 -24.36886 -9.41904 5.55984 3.77877
-0.00133 -0.00024 0.0003 19.12991 -34.17182 -3.42255 57.91422 0.42224 0.47283 -8.72313 -0.6463 -0.13752 11.04447 -103.13773 -90.01025 5.32862 57.65806 -21.3224 1.36938 169.88101 73.11675 52.77361 12.9507 -72.83647 -2.9341 11.26344 48.02792 -2.2535 -6.79374 -19.24572 -8.95996 -5.65647 -3.77825 50.94727 3.58814 3.33891 -24.36852 -9.41082 5.55838 3.77505
-0.00152 -0.00027 0.00034 19.09833 -34.16761 -3.42574 57.90319 0.42344 0.48041 -8.76305 -0.65588 -0.13679 11.13487 -103.08332 -90.01064 5.32859 57.67392 -21.39783 1.35961 169.88114 73.1318 52.51949 12.99572 -72.85807 -2.97669 11.29599 48.03986 -2.33922 -7.31126 -19.25274 -8.88361 -5.61232 -3.75215 50.95626 3.63837 3.56343 -24.36833 -9.39361 5.55099 3.76686
-0.00172 -0.0003 0.00038 19.0713 -34.16137 -3.42917 57.89172 0.42676 0.48287 -8.80776 -0.66766 -0.13596 11.19939 -103.03582 -90.01051 5.32861 57.67785 -21.46303 1.32756 169.88126 73.14854 52.24177 13.05034 -72.88472 -3.0226 11.3255 48.05082 -2.41229 -7.75181 -19.26194 -8.81115 -5.56621 -3.72811 50.96356 3.69451 3.81922 -24.36829 -9.37294 5.5413 3.75703
-0.00192 -0.00033 0.00042 19.0429 -34.15557 -3.43229 57.88003 0.42894 0.48769 -8.8509 -0.67825 -0.13519 11.27272 -102.98536 -90.01121 5.32854 57.68839 -21.53102 1.3063 169.88156 73.16502 51.98649 13.09835 -72.90659 -3.06426 11.35503 48.06202 -2.48899 -8.21358 -19.27 -8.73904 -5.52237 -3.70383 50.97131 3.74744 4.05919 -24.36829 -9.35361 5.53247 3.74792
-0.00211 -0.00036 0.00047 19.01156 -34.15179 -3.43623 57.87014 0.43186 0.49235 -8.89151 -0.68972 -0.13436 11.35308 -102.93579 -90.01128 5.32853 57.69368 -21.60809 1.28257 169.88162 73.17846 51.67972 13.15655 -72.9335 -3.11716 11.39043 48.07409 -2.57463 -8.73323 -19.27866 -8.65798 -5.47271 -3.67657 50.9804 3.80271 4.30651 -24.36784 -9.3352 5.52438 3.73892
-0.00231 -0.00039 0.00051 18.98742 -34.14332 -3.43854 57.85637 0.43374 0.49611 -8.9385 -0.69976 -0.13363 11.4194 -102.88395 -90.01018 5.32867 57.70732 -21.66227 1.25822 169.88156 73.19972 51.4771 13.19496 -72.95797 -3.14786 11.41269 48.08413 -2.63865 -9.11415 -19.28662 -8.5965 -5.43471 -3.65604 50.98632 3.85439 4.54533 -24.36836 -9.31414 5.51423 3.72932
